# xmcd
#
# Track frame offsets:
#	150
#	12977
#	23071
#	32236
#	41525
#	55714
#	70113
#	111003
#	126705
#	143482
#	157709
#	170836
#	181338
#	195915
#	207092
#	221267
#	239132
#	252447
#	269964
#	286763
#
# Disc length: 4167 seconds
#
# Revision: 1
# Processed by: cddbd v1.4PL0 Copyright (c) Steve Scherf et al.
# Submitted via: EasyCDDAExtractor 5.0.7
#
DISCID=23104514
DTITLE=Barbara Streisand - Second Hand Rose
DYEAR=1900
DGENRE=
TTITLE0=The Shadow Of your Smile
TTITLE1=Second Hand Rose
TTITLE2=The Minute Waltz
TTITLE3=Gotta Move
TTITLE4=Yesterday
TTITLE5=I Got Plenty Of Nothin'
TTITLE6=Medley
TTITLE7=Non C'est Bien
TTITLE8=C'est Si Bon (It's So Good)
TTITLE9=Where Or When
TTITLE10=Starting Here, Starting Now
TTITLE11=One Kiss
TTITLE12=He Touched Me
TTITLE13=Quiet Night
TTITLE14=How Much Of The Dream Comes True
TTITLE15=The Kind Of Men A Woman Needs
TTITLE16=No More Songs For Me
TTITLE17=All That I Want
TTITLE18=Where's That Rainbow
TTITLE19=Medley'
EXTD=
EXTT0=
EXTT1=
EXTT2=
EXTT3=
EXTT4=
EXTT5=
EXTT6=
EXTT7=
EXTT8=
EXTT9=
EXTT10=
EXTT11=
EXTT12=
EXTT13=
EXTT14=
EXTT15=
EXTT16=
EXTT17=
EXTT18=
EXTT19=
PLAYORDER=
